<?xml version="1.0" encoding="UTF-8"?>
<svg width="280px" height="65px" viewBox="0 0 280 65" version="1.1" xmlns="http://www.w3.org/2000/svg" xmlns:xlink="http://www.w3.org/1999/xlink">
    <!-- Generator: Sketch 51.1 (57501) - http://www.bohemiancoding.com/sketch -->
    <title>Group 2</title>
    <desc>Created with Sketch.</desc>
    <defs>
        <linearGradient x1="65.97%" y1="43.69%" x2="85.12%" y2="80.24%" id="linearGradient-1">
            <stop stop-color="#EFF7FC" offset="0%"></stop>
            <stop stop-color="#FFFFFF" offset="100%"></stop>
        </linearGradient>
    </defs>
    <g id="Page-1" stroke="none" stroke-width="1" fill="none" fill-rule="evenodd">
        <g id="Group-2">
            <g id="Group" fill-rule="nonzero">
                <path d="M28.6363636,61 C26.2949682,61 26.6928295,60.11926 25.8853023,57.8983 L19,35.32354 L72,4" id="Shape" fill="#C8DAEA"></path>
                <path d="M29,60 C30.7727273,60 31.5559773,59.1927565 32.5454545,58.2348903 L42,49.0810316 L30.2066364,42" id="Shape" fill="#A9C9DD"></path>
                <path d="M30.1651656,42.895852 L58.7010071,64.1146153 C61.9573148,65.9229226 64.3075093,64.9866697 65.1186211,61.0718675 L76.7341719,5.98171283 C77.9234014,1.18303805 74.9166937,-0.993415908 71.8015311,0.429997336 L3.59520521,26.8998537 C-1.06051528,28.7793079 -1.033372,31.3935113 2.74656487,32.5583489 L20.2498458,38.0566745 L60.7718028,12.3267935 C62.6847545,11.1592835 64.4404523,11.7869619 62.9994395,13.074133" id="Shape" fill="url(#linearGradient-1)"></path>
            </g>
            <path d="M114.412575,20.2718422 L106.886365,20.2718422 L106.886365,45.0107754 C106.886365,46.4354973 106.568904,47.4924082 105.933974,48.18154 C105.299044,48.8706718 104.478292,49.2152325 103.471695,49.2152325 C102.449612,49.2152325 101.617246,48.8668003 100.974573,48.1699255 C100.331899,47.4730507 100.010567,46.4200111 100.010567,45.0107754 L100.010567,20.2718422 L92.4843568,20.2718422 C91.3074126,20.2718422 90.4324607,20.0124538 89.8594747,19.4936692 C89.2864887,18.9748846 89,18.2896346 89,17.4378987 C89,16.5551906 89.2981031,15.8583262 89.8943182,15.3472846 C90.4905334,14.8362431 91.3538709,14.5807261 92.4843568,14.5807261 L114.412575,14.5807261 C115.605006,14.5807261 116.491572,14.843986 117.072301,15.3705137 C117.65303,15.8970413 117.94339,16.5861628 117.94339,17.4378987 C117.94339,18.2896346 117.649159,18.9748846 117.060687,19.4936692 C116.472215,20.0124538 115.58952,20.2718422 114.412575,20.2718422 Z M134.642493,37.8794585 L122.238183,37.8794585 C122.253669,39.3196665 122.544029,40.5895083 123.109272,41.6890219 C123.674515,42.7885355 124.42558,43.6170299 125.362489,44.1745297 C126.299399,44.7320296 127.333081,45.0107754 128.463567,45.0107754 C129.222386,45.0107754 129.915379,44.9217316 130.542566,44.7436413 C131.169754,44.5655511 131.777574,44.2868053 132.366046,43.9073957 C132.954518,43.5279861 133.496524,43.1214818 133.99208,42.6878708 C134.487635,42.2542598 135.130299,41.6657966 135.92009,40.9224634 C136.245299,40.6437135 136.709875,40.5043406 137.313833,40.5043406 C137.96425,40.5043406 138.490769,40.6824281 138.893408,41.0386086 C139.296047,41.3947891 139.497363,41.89808 139.497363,42.5484966 C139.497363,43.1214825 139.272818,43.7912466 138.823721,44.557809 C138.374624,45.3243713 137.697117,46.0599504 136.79118,46.7645683 C135.885242,47.4691862 134.74703,48.053778 133.37651,48.5183612 C132.005989,48.9829444 130.430302,49.2152325 128.649399,49.2152325 C124.576553,49.2152325 121.409691,48.0537919 119.14872,45.7308758 C116.887748,43.4079596 115.757279,40.256584 115.757279,36.2766544 C115.757279,34.4028353 116.036025,32.6645458 116.593525,31.0617337 C117.151025,29.4589216 117.964033,28.0845501 119.032574,26.9385782 C120.101116,25.7926062 121.417415,24.9137828 122.981512,24.3020816 C124.545609,23.6903803 126.280027,23.3845343 128.184818,23.3845343 C130.662595,23.3845343 132.788032,23.9071826 134.561191,24.9524948 C136.33435,25.9978071 137.662264,27.3489497 138.544972,29.0059632 C139.427681,30.6629767 139.869028,32.3509371 139.869028,34.0698951 C139.869028,35.6649641 139.412195,36.6986463 138.498514,37.1709726 C137.584834,37.6432989 136.299506,37.8794585 134.642493,37.8794585 Z M122.238183,34.2789565 L133.73656,34.2789565 C133.581699,32.1109014 132.997107,30.488756 131.982767,29.4124715 C130.968427,28.336187 129.63277,27.7980529 127.975757,27.7980529 C126.396174,27.7980529 125.099232,28.34393 124.084892,29.4357005 C123.070552,30.5274711 122.454988,32.1418736 122.238183,34.2789565 Z M143.559865,45.359211 L143.559865,17.8560215 C143.559865,16.5861607 143.842482,15.6260364 144.407725,14.9756199 C144.972968,14.3252034 145.735648,14 146.695786,14 C147.655925,14 148.430219,14.3213319 149.018691,14.9640054 C149.607163,15.6066788 149.901395,16.5706746 149.901395,17.8560215 L149.901395,45.359211 C149.901395,46.644558 149.603291,47.6085537 149.007076,48.2512272 C148.410861,48.8939006 147.640439,49.2152325 146.695786,49.2152325 C145.76662,49.2152325 145.011683,48.8822862 144.430954,48.2163836 C143.850225,47.550481 143.559865,46.5980996 143.559865,45.359211 Z M172.500675,37.8794585 L160.096364,37.8794585 C160.11185,39.3196665 160.402211,40.5895083 160.967454,41.6890219 C161.532696,42.7885355 162.283761,43.6170299 163.220671,44.1745297 C164.15758,44.7320296 165.191263,45.0107754 166.321748,45.0107754 C167.080568,45.0107754 167.773561,44.9217316 168.400748,44.7436413 C169.027935,44.5655511 169.635756,44.2868053 170.224228,43.9073957 C170.8127,43.5279861 171.354706,43.1214818 171.850261,42.6878708 C172.345817,42.2542598 172.988481,41.6657966 173.778272,40.9224634 C174.10348,40.6437135 174.568057,40.5043406 175.172015,40.5043406 C175.822431,40.5043406 176.348951,40.6824281 176.75159,41.0386086 C177.154229,41.3947891 177.355545,41.89808 177.355545,42.5484966 C177.355545,43.1214825 177.131,43.7912466 176.681903,44.557809 C176.232806,45.3243713 175.555298,46.0599504 174.649361,46.7645683 C173.743424,47.4691862 172.605212,48.053778 171.234692,48.5183612 C169.864171,48.9829444 168.288483,49.2152325 166.507581,49.2152325 C162.434735,49.2152325 159.267873,48.0537919 157.006901,45.7308758 C154.74593,43.4079596 153.615461,40.256584 153.615461,36.2766544 C153.615461,34.4028353 153.894207,32.6645458 154.451706,31.0617337 C155.009206,29.4589216 155.822215,28.0845501 156.890756,26.9385782 C157.959298,25.7926062 159.275597,24.9137828 160.839694,24.3020816 C162.403791,23.6903803 164.138209,23.3845343 166.043,23.3845343 C168.520777,23.3845343 170.646214,23.9071826 172.419373,24.9524948 C174.192532,25.9978071 175.520446,27.3489497 176.403154,29.0059632 C177.285862,30.6629767 177.72721,32.3509371 177.72721,34.0698951 C177.72721,35.6649641 177.270376,36.6986463 176.356696,37.1709726 C175.443016,37.6432989 174.157688,37.8794585 172.500675,37.8794585 Z M160.096364,34.2789565 L171.594742,34.2789565 C171.439881,32.1109014 170.855289,30.488756 169.840949,29.4124715 C168.826609,28.336187 167.490952,27.7980529 165.833939,27.7980529 C164.254356,27.7980529 162.957414,28.34393 161.943073,29.4357005 C160.928733,30.5274711 160.31317,32.1418736 160.096364,34.2789565 Z M190.849039,18.13477 L204.112824,38.2046651 L204.112824,17.9489377 C204.112824,16.6326185 204.395441,15.645394 204.960684,14.9872344 C205.525927,14.3290748 206.288606,14 207.248745,14 C208.239856,14 209.021893,14.3290748 209.594879,14.9872344 C210.167865,15.645394 210.454353,16.6326185 210.454353,17.9489377 L210.454353,44.7320268 C210.454353,47.7208456 209.215483,49.2152325 206.737706,49.2152325 C206.118262,49.2152325 205.56077,49.1261888 205.065215,48.9480985 C204.569659,48.7700083 204.105083,48.4873911 203.671472,48.1002384 C203.237861,47.7130857 202.835228,47.2601238 202.463562,46.7413392 C202.091895,46.2225546 201.720234,45.6921634 201.348568,45.1501496 L188.409989,25.312545 L188.409989,45.2662949 C188.409989,46.5671279 188.108015,47.550481 187.504057,48.2163836 C186.900099,48.8822862 186.125805,49.2152325 185.181152,49.2152325 C184.205527,49.2152325 183.423491,48.8784147 182.835019,48.2047691 C182.246547,47.5311234 181.952315,46.5516418 181.952315,45.2662949 L181.952315,18.9942447 C181.952315,17.879245 182.076202,17.004293 182.32398,16.3693626 C182.618216,15.6724878 183.106021,15.1033819 183.787409,14.6620278 C184.468798,14.2206737 185.204377,14 185.994169,14 C186.613613,14 187.144004,14.1006582 187.585358,14.3019776 C188.026712,14.503297 188.413859,14.7742998 188.746811,15.1149942 C189.079762,15.4556885 189.420451,15.897036 189.768889,16.4390497 C190.117326,16.9810635 190.477373,17.546298 190.849039,18.13477 Z M239.650682,36.3231124 C239.650682,38.2124176 239.356451,39.9545785 238.767978,41.5496476 C238.179506,43.1447167 237.327783,44.5152167 236.212784,45.6611886 C235.097784,46.8071606 233.765998,47.685984 232.217388,48.2976853 C230.668777,48.9093865 228.926616,49.2152325 226.990853,49.2152325 C225.070575,49.2152325 223.3439,48.905515 221.810775,48.2860707 C220.277651,47.6666264 218.949737,46.7800601 217.826994,45.6263451 C216.704251,44.47263 215.852528,43.109873 215.271799,41.5380331 C214.69107,39.9661932 214.40071,38.2279037 214.40071,36.3231124 C214.40071,34.4028351 214.694942,32.6451883 215.283414,31.0501192 C215.871886,29.4550501 216.715866,28.0922931 217.81538,26.9618072 C218.914893,25.8313214 220.246679,24.9602409 221.810775,24.3485396 C223.374872,23.7368384 225.101547,23.4309924 226.990853,23.4309924 C228.91113,23.4309924 230.653291,23.7407099 232.217388,24.3601542 C233.781485,24.9795985 235.121013,25.8622934 236.236013,27.0082653 C237.351012,28.1542373 238.198864,29.5169943 238.779593,31.0965773 C239.360322,32.6761602 239.650682,34.4183212 239.650682,36.3231124 Z M233.285924,36.3231124 C233.285924,33.7369325 232.716818,31.7237687 231.578589,30.2835607 C230.44036,28.8433527 228.91113,28.1232595 226.990853,28.1232595 C225.751964,28.1232595 224.66021,28.4445914 223.715557,29.0872649 C222.770905,29.7299383 222.043068,30.6784482 221.532027,31.9328229 C221.020985,33.1871976 220.765468,34.6506128 220.765468,36.3231124 C220.765468,37.980126 221.017114,39.4280553 221.520412,40.6669439 C222.023711,41.9058325 222.743804,42.8543424 223.680714,43.5125019 C224.617623,44.1706615 225.720992,44.4997364 226.990853,44.4997364 C228.91113,44.4997364 230.44036,43.7757717 231.578589,42.3278206 C232.716818,40.8798696 233.285924,38.8783202 233.285924,36.3231124 Z M243.341519,23.9884894 L244.038391,23.9884894 L244.038391,20.178926 C244.038391,19.1568429 244.065491,18.3554489 244.119692,17.7747198 C244.173894,17.1939908 244.324881,16.6945713 244.572659,16.2764464 C244.820437,15.8428354 245.176612,15.4905318 245.641195,15.2195249 C246.105778,14.948518 246.624555,14.8130166 247.197541,14.8130166 C248.002818,14.8130166 248.730655,15.1149912 249.381071,15.7189493 C249.814682,16.1215881 250.089556,16.6132647 250.205702,17.1939937 C250.321848,17.7747228 250.37992,18.5993456 250.37992,19.667887 L250.37992,23.9884894 L252.702825,23.9884894 C253.601019,23.9884894 254.286269,24.2014202 254.758595,24.6272882 C255.230921,25.0531561 255.467081,25.5990332 255.467081,26.2649359 C255.467081,27.1166718 255.130263,27.712878 254.456618,28.0535724 C253.782972,28.3942667 252.818976,28.5646113 251.564601,28.5646113 L250.37992,28.5646113 L250.37992,40.225592 C250.37992,41.2167029 250.414763,41.9793823 250.484451,42.513653 C250.554138,43.0479237 250.739969,43.4815282 251.041948,43.8144795 C251.343927,44.1474308 251.835604,44.313904 252.516992,44.313904 C252.888659,44.313904 253.39195,44.248089 254.02688,44.1164571 C254.661811,43.9848252 255.157359,43.9190102 255.513539,43.9190102 C256.024581,43.9190102 256.485285,44.1241981 256.895667,44.5345799 C257.306049,44.9449618 257.511237,45.4521242 257.511237,46.0560824 C257.511237,47.0781655 256.953745,47.8602022 255.838746,48.402216 C254.723746,48.9442297 253.120958,49.2152325 251.030333,49.2152325 C249.048112,49.2152325 247.545982,48.8822862 246.523899,48.2163836 C245.501815,47.550481 244.832051,46.6290714 244.514586,45.4521272 C244.197121,44.275183 244.038391,42.7033667 244.038391,40.736631 L244.038391,28.5646113 L243.202145,28.5646113 C242.288465,28.5646113 241.5916,28.3478091 241.111531,27.9141981 C240.631462,27.4805871 240.391431,26.9308385 240.391431,26.2649359 C240.391431,25.5990332 240.643076,25.0531561 241.146375,24.6272882 C241.649673,24.2014202 242.381381,23.9884894 243.341519,23.9884894 Z M264.036018,50.0050201 L264.616744,48.5880483 L256.811785,28.9362761 C256.331715,27.8057902 256.091684,26.9850388 256.091684,26.4739973 C256.091684,25.9319835 256.231057,25.4286926 256.509807,24.9641093 C256.788557,24.4995261 257.171832,24.1278651 257.659645,23.8491152 C258.147457,23.5703652 258.65462,23.4309924 259.181147,23.4309924 C260.094828,23.4309924 260.783949,23.7213525 261.248532,24.3020816 C261.713115,24.8828106 262.123491,25.7151764 262.479672,26.7992039 L267.845581,42.4091223 L272.932742,27.890969 C273.335381,26.7140249 273.699299,25.7926153 274.024507,25.1267127 C274.349715,24.46081 274.694276,24.0117196 275.0582,23.779428 C275.422123,23.5471364 275.937028,23.4309924 276.602931,23.4309924 C277.083,23.4309924 277.543705,23.5587508 277.985059,23.8142716 C278.426413,24.0697924 278.767103,24.4143531 279.007137,24.8479641 C279.247172,25.2815751 279.367188,25.7384084 279.367188,26.2184778 C279.305243,26.5127138 279.204585,26.9308325 279.06521,27.4728462 C278.925835,28.01486 278.75549,28.5646086 278.554171,29.1221084 L270.284631,50.7715786 C269.57227,52.6763698 268.875405,54.1707568 268.194017,55.2547843 C267.512628,56.3388118 266.610576,57.1711776 265.487833,57.7519067 C264.36509,58.3326357 262.851346,58.6229958 260.946555,58.6229958 C259.088222,58.6229958 257.694493,58.4216795 256.765327,58.0190407 C255.83616,57.6164019 255.371584,56.8808228 255.371584,55.8122814 C255.371584,55.0844343 255.592258,54.5230713 256.033612,54.1281756 C256.474966,53.7332799 257.129244,53.5358349 257.996466,53.5358349 C258.33716,53.5358349 258.670107,53.5822926 258.995315,53.6752092 C259.397954,53.7681259 259.746386,53.8145835 260.040622,53.8145835 C260.768469,53.8145835 261.341446,53.7061824 261.759571,53.4893769 C262.177696,53.2725713 262.553229,52.8970389 262.88618,52.3627682 C263.219131,51.8284975 263.602407,51.0425893 264.036018,50.0050201 Z" id="TeleNoty" fill="#FFFFFF"></path>
        </g>
    </g>
</svg>