<?xml version="1.0" encoding="UTF-8"?>
<svg width="200px" height="64px" viewBox="0 0 200 64" version="1.1" xmlns="http://www.w3.org/2000/svg" xmlns:xlink="http://www.w3.org/1999/xlink">
    <!-- Generator: Sketch 51.1 (57501) - http://www.bohemiancoding.com/sketch -->
    <title>Group</title>
    <desc>Created with Sketch.</desc>
    <defs>
        <linearGradient x1="66.67%" y1="16.67%" x2="41.67%" y2="75%" id="linearGradient-1">
            <stop stop-color="#49A074" offset="0%"></stop>
            <stop stop-color="#55B67C" offset="100%"></stop>
        </linearGradient>
        <linearGradient x1="65.97%" y1="43.69%" x2="85.12%" y2="80.24%" id="linearGradient-2">
            <stop stop-color="#EFF7FC" offset="0%"></stop>
            <stop stop-color="#FFFFFF" offset="100%"></stop>
        </linearGradient>
    </defs>
    <g id="Page-1" stroke="none" stroke-width="1" fill="none" fill-rule="evenodd">
        <g id="Group">
            <g id="Telegram_logo" fill-rule="nonzero">
                <circle id="Oval" fill="url(#linearGradient-1)" cx="31.840796" cy="31.840796" r="31.840796"></circle>
                <path d="M25.8477141,46.6400392 C24.7976874,46.6400392 24.976113,46.2450609 24.6139678,45.2490449 L21.526172,35.1251248 L45.2946535,21.07771" id="Shape" fill="#C8DAEA"></path>
                <path d="M26.0107911,46.1915773 C26.8057918,46.1915773 27.1570496,45.8295594 27.6007925,45.3999929 L31.840796,41.2948358 L26.5519216,38.1192628" id="Shape" fill="#A9C9DD"></path>
                <path d="M26.5333235,38.5210183 L39.3305617,48.0368256 C40.7908917,48.8477825 41.8448644,48.4279088 42.2086171,46.6722691 L47.4177493,21.9664328 C47.9510734,19.8144099 46.6026796,18.8383532 45.2056477,19.4766998 L14.6177082,31.3474223 C12.5297948,32.1902859 12.5419676,33.3626566 14.2371253,33.8850419 L22.0866802,36.3508316 L40.2592347,24.8119598 C41.1171207,24.288376 41.9044842,24.5698659 41.2582449,25.1471131" id="Shape" fill="url(#linearGradient-2)"></path>
            </g>
            <path d="M87.9144416,24.0960735 L82.8004317,24.0960735 L82.8004317,40.6452899 C82.8004317,41.5983638 82.5847195,42.305389 82.1532885,42.7663867 C81.7218575,43.2273844 81.1641624,43.4578798 80.4801865,43.4578798 C79.7856878,43.4578798 79.2201008,43.2247946 78.7834085,42.7586171 C78.3467162,42.2924397 78.1283733,41.5880043 78.1283733,40.6452899 L78.1283733,24.0960735 L73.0143634,24.0960735 C72.2146376,24.0960735 71.6201136,23.9225545 71.2307735,23.5755113 C70.8414333,23.2284681 70.6467662,22.7700672 70.6467662,22.2002947 C70.6467662,21.6098033 70.8493252,21.1436329 71.2544494,20.8017694 C71.6595737,20.4599059 72.2462058,20.2889768 73.0143634,20.2889768 L87.9144416,20.2889768 C88.7246901,20.2889768 89.327106,20.4650856 89.7217075,20.8173086 C90.116309,21.1695315 90.3136068,21.6305223 90.3136068,22.2002947 C90.3136068,22.7700672 90.1136784,23.2284681 89.7138155,23.5755113 C89.3139527,23.9225545 88.7141674,24.0960735 87.9144416,24.0960735 Z M101.660536,35.8747646 L93.2318896,35.8747646 C93.2424123,36.838198 93.4397101,37.6876642 93.8237888,38.4231886 C94.2078676,39.158713 94.7182113,39.7129379 95.354835,40.0858798 C95.9914588,40.4588218 96.6938389,40.6452899 97.4619965,40.6452899 C97.9776092,40.6452899 98.4484932,40.5857237 98.8746628,40.4665895 C99.3008325,40.3474553 99.7138425,40.1609871 100.113705,39.9071794 C100.513568,39.6533716 100.881857,39.3814389 101.218584,39.0913729 C101.555311,38.8013069 101.991996,38.4076519 102.528655,37.910396 C102.749631,37.723925 103.065308,37.6306909 103.475693,37.6306909 C103.917647,37.6306909 104.275414,37.7498233 104.549004,37.9880918 C104.822594,38.2263603 104.959388,38.5630389 104.959388,38.9981379 C104.959388,39.3814393 104.806811,39.8294809 104.501652,40.3422761 C104.196494,40.8550713 103.736132,41.3471401 103.120554,41.8184973 C102.504975,42.2898545 101.731568,42.6809197 100.800309,42.9917047 C99.869049,43.3024896 98.7983797,43.4578798 97.5882684,43.4578798 C94.8207965,43.4578798 92.6689352,42.680929 91.13262,41.1270042 C89.5963049,39.5730794 88.8281588,37.4649531 88.8281588,34.8025619 C88.8281588,33.5490625 89.0175647,32.3862263 89.3963821,31.3140181 C89.7751996,30.24181 90.3276334,29.3224183 91.0537001,28.5558154 C91.7797669,27.7892125 92.6741836,27.2013198 93.736977,26.7921196 C94.7997703,26.3829194 95.9782958,26.1783223 97.2725887,26.1783223 C98.9562218,26.1783223 100.400442,26.5279502 101.605292,27.2272163 C102.810142,27.9264825 103.71245,28.8303352 104.312244,29.9388016 C104.912039,31.0472679 105.211931,32.1764364 105.211931,33.3263407 C105.211931,34.3933691 104.901516,35.0848552 104.280676,35.40082 C103.659837,35.7167847 102.786465,35.8747646 101.660536,35.8747646 Z M93.2318896,33.4661932 L101.04496,33.4661932 C100.939733,32.0158634 100.542507,30.9307222 99.8532697,30.210737 C99.1640324,29.4907519 98.2564625,29.1307647 97.1305329,29.1307647 C96.0572168,29.1307647 95.1759534,29.4959316 94.4867161,30.2262762 C93.7974788,30.9566209 93.3792074,32.0365824 93.2318896,33.4661932 Z M107.719831,40.8783775 L107.719831,22.4799998 C107.719831,21.6305209 107.911867,20.9882416 108.295946,20.5531427 C108.680025,20.1180437 109.19826,19.9004975 109.850668,19.9004975 C110.503076,19.9004975 111.029203,20.1154539 111.429066,20.5453731 C111.828929,20.9752923 112.028857,21.6201614 112.028857,22.4799998 L112.028857,40.8783775 C112.028857,41.7382159 111.826298,42.383085 111.421174,42.8130042 C111.01605,43.2429234 110.492553,43.4578798 109.850668,43.4578798 C109.219306,43.4578798 108.706331,43.2351539 108.31173,42.7896955 C107.917128,42.344237 107.719831,41.7071374 107.719831,40.8783775 Z M127.384917,35.8747646 L118.956271,35.8747646 C118.966794,36.838198 119.164092,37.6876642 119.548171,38.4231886 C119.93225,39.158713 120.442593,39.7129379 121.079217,40.0858798 C121.715841,40.4588218 122.418221,40.6452899 123.186378,40.6452899 C123.701991,40.6452899 124.172875,40.5857237 124.599045,40.4665895 C125.025214,40.3474553 125.438224,40.1609871 125.838087,39.9071794 C126.23795,39.6533716 126.606239,39.3814389 126.942966,39.0913729 C127.279693,38.8013069 127.716378,38.4076519 128.253036,37.910396 C128.474013,37.723925 128.78969,37.6306909 129.200075,37.6306909 C129.642029,37.6306909 129.999796,37.7498233 130.273386,37.9880918 C130.546976,38.2263603 130.683769,38.5630389 130.683769,38.9981379 C130.683769,39.3814393 130.531193,39.8294809 130.226034,40.3422761 C129.920876,40.8550713 129.460514,41.3471401 128.844936,41.8184973 C128.229357,42.2898545 127.45595,42.6809197 126.52469,42.9917047 C125.593431,43.3024896 124.522762,43.4578798 123.31265,43.4578798 C120.545178,43.4578798 118.393317,42.680929 116.857002,41.1270042 C115.320687,39.5730794 114.552541,37.4649531 114.552541,34.8025619 C114.552541,33.5490625 114.741947,32.3862263 115.120764,31.3140181 C115.499581,30.24181 116.052015,29.3224183 116.778082,28.5558154 C117.504149,27.7892125 118.398565,27.2013198 119.461359,26.7921196 C120.524152,26.3829194 121.702678,26.1783223 122.996971,26.1783223 C124.680604,26.1783223 126.124824,26.5279502 127.329673,27.2272163 C128.534523,27.9264825 129.436832,28.8303352 130.036626,29.9388016 C130.636421,31.0472679 130.936313,32.1764364 130.936313,33.3263407 C130.936313,34.3933691 130.625898,35.0848552 130.005058,35.40082 C129.384219,35.7167847 128.510847,35.8747646 127.384917,35.8747646 Z M118.956271,33.4661932 L126.769342,33.4661932 C126.664115,32.0158634 126.266889,30.9307222 125.577652,30.210737 C124.888414,29.4907519 123.980844,29.1307647 122.854915,29.1307647 C121.781599,29.1307647 120.900335,29.4959316 120.211098,30.2262762 C119.521861,30.9566209 119.103589,32.0365824 118.956271,33.4661932 Z M139.852509,22.6664698 L148.865162,36.092313 L148.865162,22.5421565 C148.865162,21.6615991 149.057199,21.0011909 149.441277,20.5609123 C149.825356,20.1206336 150.343592,19.9004975 150.996,19.9004975 C151.669453,19.9004975 152.200842,20.1206336 152.590182,20.5609123 C152.979522,21.0011909 153.174189,21.6615991 153.174189,22.5421565 L153.174189,40.4588199 C153.174189,42.4582032 152.332385,43.4578798 150.648752,43.4578798 C150.227844,43.4578798 149.849032,43.3983136 149.512305,43.2791793 C149.175579,43.1600451 148.859902,42.9709871 148.565266,42.7119996 C148.270631,42.4530121 147.997044,42.1500013 147.744499,41.8029581 C147.491954,41.4559149 147.239413,41.1011074 146.986868,40.738525 L138.195191,27.4680735 L138.195191,40.8162208 C138.195191,41.6864187 137.990001,42.344237 137.579616,42.7896955 C137.16923,43.2351539 136.643103,43.4578798 136.001217,43.4578798 C135.338287,43.4578798 134.806898,43.2325641 134.407035,42.7819259 C134.007172,42.3312877 133.807244,41.6760592 133.807244,40.8162208 L133.807244,23.2414191 C133.807244,22.4955352 133.891424,21.9102323 134.059788,21.4854929 C134.259719,21.0193154 134.591179,20.6386096 135.054179,20.3433639 C135.517178,20.0481182 136.016999,19.9004975 136.553657,19.9004975 C136.974565,19.9004975 137.334962,19.9678332 137.634859,20.1025067 C137.934757,20.2371802 138.19782,20.4184687 138.424059,20.6463777 C138.650297,20.8742867 138.881793,21.1695279 139.118554,21.5321104 C139.355315,21.8946929 139.599964,22.2728089 139.852509,22.6664698 Z M173.0129,34.8336402 C173.0129,36.0974991 172.812971,37.2629252 172.413108,38.3299536 C172.013245,39.3969819 171.434505,40.3137838 170.67687,41.0803867 C169.919236,41.8469896 169.014296,42.4348824 167.962026,42.8440826 C166.909755,43.2532828 165.725968,43.4578798 164.41063,43.4578798 C163.105814,43.4578798 161.93255,43.2506929 160.890802,42.836313 C159.849054,42.421933 158.946745,41.8288606 158.183849,41.057078 C157.420953,40.2852953 156.842213,39.3736731 156.447611,38.322184 C156.05301,37.2706949 155.855712,36.1078586 155.855712,34.8336402 C155.855712,33.5490624 156.05564,32.3732769 156.455503,31.3062486 C156.855366,30.2392202 157.428845,29.327598 158.175957,28.5713546 C158.923069,27.8151112 159.828009,27.2323981 160.890802,26.8231979 C161.953595,26.4139977 163.12686,26.2094007 164.41063,26.2094007 C165.715445,26.2094007 166.899232,26.4165875 167.962026,26.8309675 C169.024819,27.2453474 169.935019,27.83583 170.692654,28.6024329 C171.450289,29.3690358 172.026399,30.280658 172.421,31.3373269 C172.815602,32.3939958 173.0129,33.5594219 173.0129,34.8336402 Z M168.688089,34.8336402 C168.688089,33.1036039 168.301385,31.7568893 167.527966,30.7934559 C166.754547,29.8300226 165.715445,29.3483131 164.41063,29.3483131 C163.568813,29.3483131 162.826974,29.5632695 162.185088,29.9931887 C161.543203,30.4231079 161.048644,31.0576176 160.701394,31.896737 C160.354145,32.7358564 160.180523,33.7148144 160.180523,34.8336402 C160.180523,35.9421066 160.351514,36.9107052 160.693502,37.7394651 C161.03549,38.568225 161.524789,39.2027348 162.161413,39.6430135 C162.798036,40.0832922 163.547768,40.3034282 164.41063,40.3034282 C165.715445,40.3034282 166.754547,39.8191289 167.527966,38.8505158 C168.301385,37.8819026 168.688089,36.5429575 168.688089,34.8336402 Z M175.520799,26.5823408 L175.994318,26.5823408 L175.994318,24.0339168 C175.994318,23.3501899 176.012733,22.8140939 176.049562,22.4256127 C176.086392,22.0371315 176.188987,21.7030427 176.35735,21.4233362 C176.525713,21.1332702 176.767732,20.8975952 177.083413,20.716304 C177.399094,20.5350127 177.7516,20.4443685 178.14094,20.4443685 C178.688121,20.4443685 179.18268,20.6463757 179.624634,21.0503961 C179.91927,21.3197431 180.106045,21.6486522 180.184965,22.0371334 C180.263886,22.4256146 180.303345,22.9772497 180.303345,23.6920551 L180.303345,26.5823408 L181.881743,26.5823408 C182.49206,26.5823408 182.957683,26.7247817 183.278626,27.009668 C183.599568,27.2945542 183.760037,27.659721 183.760037,28.1051795 C183.760037,28.6749519 183.531172,29.0737866 183.073434,29.3016956 C182.615696,29.5296046 181.960667,29.6435573 181.108328,29.6435573 L180.303345,29.6435573 L180.303345,37.4442209 C180.303345,38.1072288 180.327021,38.6174264 180.374373,38.9748291 C180.421725,39.3322318 180.547996,39.6222935 180.753189,39.8450227 C180.958381,40.0677519 181.292472,40.1791148 181.755471,40.1791148 C182.008016,40.1791148 182.349999,40.1350876 182.78143,40.0470319 C183.212861,39.9589761 183.549583,39.9149489 183.791605,39.9149489 C184.138854,39.9149489 184.4519,40.0522102 184.730752,40.326737 C185.009604,40.6012637 185.149027,40.9405322 185.149027,41.3445526 C185.149027,42.0282795 184.770216,42.5514264 184.012581,42.9140088 C183.254946,43.2765913 182.165862,43.4578798 180.745297,43.4578798 C179.39839,43.4578798 178.377703,43.2351539 177.683204,42.7896955 C176.988706,42.344237 176.533605,41.7278561 176.31789,40.9405342 C176.102174,40.1532123 175.994318,39.1017389 175.994318,37.7860826 L175.994318,29.6435573 L175.426095,29.6435573 C174.805255,29.6435573 174.331741,29.4985265 174.005537,29.2084606 C173.679333,28.9183946 173.516233,28.5506379 173.516233,28.1051795 C173.516233,27.659721 173.687225,27.2945542 174.029213,27.009668 C174.371201,26.7247817 174.868391,26.5823408 175.520799,26.5823408 Z M189.582572,43.9862116 L189.977172,43.0383222 L184.673754,29.8921841 C184.34755,29.1359407 184.184451,28.5868955 184.184451,28.245032 C184.184451,27.8824495 184.279154,27.5457709 184.468562,27.2349859 C184.657971,26.924201 184.918404,26.6755767 185.24987,26.4891057 C185.581335,26.3026348 185.925948,26.2094007 186.28372,26.2094007 C186.90456,26.2094007 187.372813,26.4036384 187.688495,26.7921196 C188.004176,27.1806008 188.283023,27.7374155 188.525046,28.4625804 L192.171145,38.9049029 L195.627837,29.1929214 C195.901428,28.4055995 196.148707,27.7892186 196.369684,27.3437601 C196.590661,26.8983017 196.824788,26.5978807 197.072071,26.4424882 C197.319355,26.2870958 197.66923,26.2094007 198.121706,26.2094007 C198.44791,26.2094007 198.760956,26.2948653 199.060853,26.465797 C199.36075,26.6367287 199.592246,26.8672241 199.755348,27.1572901 C199.91845,27.447356 200,27.7529567 200,28.0741011 C199.957909,28.2709316 199.889513,28.5506339 199.794808,28.9132163 C199.700104,29.2757988 199.584356,29.6435555 199.447561,30.0164974 L193.828463,44.4990042 C193.344419,45.7732225 192.870904,46.7728992 192.407905,47.4980641 C191.944906,48.223229 191.331967,48.7800437 190.569071,49.1685249 C189.806175,49.5570061 188.777596,49.7512438 187.483303,49.7512438 C186.220578,49.7512438 185.273549,49.6165723 184.642186,49.3472254 C184.010824,49.0778784 183.695147,48.5858096 183.695147,47.8710042 C183.695147,47.3841077 183.845094,47.0085815 184.144991,46.7444143 C184.444888,46.4802471 184.889466,46.3481655 185.478737,46.3481655 C185.710237,46.3481655 185.936472,46.3792435 186.157448,46.4414005 C186.431039,46.5035575 186.667796,46.5346355 186.867728,46.5346355 C187.362295,46.5346355 187.751629,46.4621201 188.035742,46.3170871 C188.319855,46.1720541 188.575027,45.9208401 188.801265,45.5634374 C189.027504,45.2060347 189.287937,44.680298 189.582572,43.9862116 Z" id="TeleNoty" fill="#FFFFFF"></path>
        </g>
    </g>
</svg>